<svg width="50" height="50" viewBox="0 0 50 50" fill="none" xmlns="http://www.w3.org/2000/svg">
<path d="M50 25.1549C50 11.2584 38.8016 0 25 0C11.1891 0 0 11.2584 0 25.1549C0 37.7071 9.13906 48.115 21.0938 50V32.4278H14.7453V25.1564H21.0938V19.6114C21.0938 13.3085 24.8203 9.82769 30.5328 9.82769C33.2688 9.82769 36.1328 10.3182 36.1328 10.3182V16.5079H32.975C29.875 16.5079 28.9062 18.4495 28.9062 20.4383V25.1549H35.8391L34.725 32.4262H28.9062V49.9984C40.8516 48.1134 50 37.7056 50 25.1533V25.1549Z" fill="black"/>
</svg>
